<svg width="121" height="25" viewBox="0 0 121 25" fill="none" xmlns="http://www.w3.org/2000/svg">
<path d="M44.5469 0.779785H49.0949L56.8283 14.7963L64.5615 0.779797H69.0111V23.8115H65.3005V6.15943L58.5194 18.3827H55.0386L48.2575 6.15943V23.8115H44.5469V0.779785Z" fill="white"/>
<path d="M80.9817 24.222C79.2631 24.222 77.7525 23.8409 76.4501 23.0787C75.1474 22.3164 74.1321 21.2608 73.4044 19.9118C72.6763 18.5627 72.3124 17.0163 72.3125 15.2726C72.3125 13.5069 72.6682 11.944 73.3797 10.5839C74.0912 9.22416 75.0791 8.16028 76.3434 7.39228C77.6077 6.62479 79.0608 6.24093 80.7026 6.24072C82.3335 6.24072 83.7373 6.62731 84.9141 7.40048C86.0906 8.17386 86.9963 9.25693 87.6314 10.6497C88.2661 12.0427 88.5835 13.6768 88.5837 15.5522V16.572H75.9903C76.2203 17.9761 76.7867 19.0811 77.6898 19.887C78.5928 20.6932 79.7339 21.0962 81.1131 21.0961C82.2185 21.0961 83.1708 20.9316 83.97 20.6026C84.7689 20.2736 85.5187 19.7746 86.2194 19.1056L88.1897 21.5239C86.2301 23.3228 83.8275 24.2222 80.9817 24.222ZM83.6909 10.5591C82.9136 9.76412 81.8956 9.36654 80.637 9.36639C79.4109 9.36639 78.3847 9.77224 77.5584 10.5839C76.7318 11.3955 76.2091 12.4868 75.9903 13.8577H85.0208C84.9113 12.4538 84.4679 11.3543 83.6909 10.5591Z" fill="white"/>
<path d="M93.0832 9.69548H89.668V6.65195H93.0832V1.61792H96.6625V6.65195H101.851V9.69548H96.6625V17.411C96.6625 18.6941 96.8814 19.6099 97.3192 20.1583C97.7568 20.7069 98.5067 20.9811 99.5687 20.9809C100.039 20.9809 100.439 20.9617 100.767 20.9233C101.096 20.8851 101.457 20.8329 101.851 20.767V23.7775C101.401 23.9078 100.943 24.0068 100.48 24.0738C99.9498 24.1519 99.4147 24.1904 98.879 24.1889C95.0149 24.1889 93.083 22.0722 93.0832 17.8388V9.69548Z" fill="white"/>
<path d="M120.503 23.8106H116.989V21.4088C116.365 22.3082 115.572 23.0019 114.609 23.4898C113.645 23.9777 112.551 24.2217 111.325 24.222C109.814 24.222 108.476 23.8354 107.31 23.0621C106.145 22.2889 105.228 21.2251 104.56 19.8706C103.892 18.5161 103.559 16.967 103.559 15.2232C103.559 13.4684 103.898 11.9165 104.577 10.5673C105.255 9.21849 106.194 8.16014 107.392 7.39229C108.591 6.62479 109.967 6.24093 111.522 6.24072C112.693 6.24072 113.744 6.46833 114.674 6.92355C115.592 7.36842 116.387 8.03213 116.989 8.85649V6.6521H120.503V23.8106ZM116.924 12.6568C116.54 11.6807 115.936 10.9101 115.109 10.3452C114.283 9.78049 113.328 9.49812 112.244 9.49812C110.712 9.49812 109.491 10.0136 108.583 11.0445C107.674 12.0754 107.22 13.4683 107.22 15.2232C107.22 16.9891 107.658 18.3874 108.534 19.4183C109.409 20.4492 110.597 20.9647 112.097 20.9646C113.202 20.9646 114.187 20.6794 115.052 20.1091C115.916 19.5391 116.54 18.7714 116.924 17.8059V12.6568Z" fill="white"/>
<path d="M26.6166 0C23.6328 0 21.3002 2.25179 19.1888 5.11226C16.2872 1.41053 13.8606 0 10.9566 0C5.03622 0 0.5 7.72003 0.5 15.8912C0.5 21.0045 2.96888 24.2295 7.1042 24.2295C10.0805 24.2295 12.2211 22.8236 16.0265 16.1586C16.0265 16.1586 17.6128 13.3518 18.7041 11.4184C19.0865 12.037 19.4892 12.7036 19.9123 13.4181L21.6968 16.4259C25.1729 22.2543 27.1097 24.2295 30.6191 24.2295C34.6478 24.2295 36.8898 20.9604 36.8898 15.7408C36.8898 7.18531 32.2513 0 26.6166 0ZM13.1247 14.3539C10.0394 19.1998 8.97205 20.286 7.25429 20.286C5.4865 20.286 4.43583 18.731 4.43583 15.9581C4.43583 10.026 7.38771 3.96027 10.9066 3.96027C12.8122 3.96027 14.4046 5.06296 16.8438 8.56178C14.5277 12.1214 13.1247 14.3539 13.1247 14.3539ZM24.769 13.7439L22.6354 10.1785C22.0581 9.23764 21.5032 8.3716 20.9708 7.58039C22.8938 4.60658 24.4799 3.12478 26.3664 3.12478C30.2856 3.12478 33.4209 8.90645 33.4209 16.0082C33.4209 18.7152 32.536 20.286 30.7025 20.286C28.9452 20.286 28.1057 19.1231 24.769 13.7439Z" fill="white"/>
</svg>
